 <svg  version="1.0" xmlns="http://www.w3.org/2000/svg"  width="300.000000pt" height="300.000000pt" viewBox="0 0 300.000000 300.000000"  preserveAspectRatio="xMidYMid meet">  <g transform="translate(0.000000,300.000000) scale(0.050000,-0.050000)" fill="#c5269b" stroke="none"> <path d="M3000 5311 c0 -88 -1 -89 -73 -95 -106 -9 -113 -56 -9 -56 l82 0 0 -260 c0 -218 5 -260 30 -260 25 0 30 42 30 260 l0 260 82 0 c104 0 97 47 -9 56 -72 6 -73 7 -73 95 0 66 -8 89 -30 89 -22 0 -30 -23 -30 -89z"/> <path d="M2515 4727 c-48 -85 -21 -187 29 -108 14 23 32 41 41 41 23 0 18 -276 -5 -290 -45 -28 -15 -50 70 -50 85 0 115 22 70 50 -11 7 -20 77 -19 156 0 143 1 144 37 100 43 -51 62 -41 63 32 0 50 1 51 30 13 38 -50 37 -205 -1 -278 -40 -76 -43 -73 60 -73 85 0 115 22 70 50 -67 42 -20 130 70 130 95 0 140 -97 59 -128 -81 -31 11 -52 223 -52 l230 0 28 65 c38 90 5 115 -63 47 -69 -69 -135 -63 -143 13 -7 61 24 74 52 22 27 -48 64 -14 64 59 -1 93 -29 131 -59 77 -30 -58 -61 -54 -61 7 0 64 71 68 146 10 60 -48 81 -27 54 53 l-20 57 -225 -7 c-254 -8 -246 -5 -213 -58 39 -63 9 -105 -72 -105 -80 0 -111 42 -73 102 35 57 31 59 -92 56 -63 -2 -166 4 -228 12 -62 7 -117 6 -122 -3z m761 -204 c5 -133 3 -143 -35 -143 -42 0 -65 249 -27 287 36 36 57 -13 62 -144z"/> <path d="M1925 4290 c-85 -37 -136 -139 -107 -215 30 -77 69 -72 51 7 -10 48 -7 61 14 54 34 -11 49 -272 18 -303 -45 -45 -22 -73 59 -73 84 0 95 16 57 78 -34 55 -7 102 58 102 32 0 67 10 79 22 29 29 66 6 66 -41 0 -46 109 -141 163 -141 107 0 197 99 197 219 0 78 71 167 91 115 20 -52 -4 -257 -32 -275 -41 -25 0 -59 71 -59 68 0 112 33 76 57 -28 18 -52 277 -27 292 10 7 29 -6 41 -28 27 -52 72 -52 100 -1 39 72 60 42 60 -86 0 -77 -11 -141 -29 -167 -37 -52 -23 -67 61 -67 72 0 105 31 70 66 -24 24 -31 294 -7 294 9 0 27 -18 41 -41 27 -44 74 -33 56 13 -6 15 -2 28 9 28 28 0 24 -267 -5 -296 -37 -37 -8 -48 141 -59 l138 -10 25 74 c32 97 20 103 -71 41 -92 -62 -117 -57 -125 27 -7 68 22 84 54 28 24 -43 38 -30 52 46 14 77 -21 135 -51 84 -30 -50 -59 -43 -59 15 0 64 62 67 136 9 58 -46 76 -29 56 52 l-13 49 -429 -1 c-374 -1 -431 -5 -447 -33 -16 -29 -24 -28 -73 11 -68 53 -125 54 -190 3 -65 -50 -73 -50 -88 8 -24 95 -178 150 -287 102z m190 -94 c67 -56 16 -196 -71 -196 -50 0 -55 50 -15 144 12 27 1 35 -62 41 -75 7 -76 7 -27 30 53 25 133 16 175 -19z m362 -124 c33 -69 3 -200 -50 -220 -96 -37 -168 134 -106 251 32 59 122 42 156 -31z"/> <path d="M3800 4180 c0 -40 -3 -40 -44 -11 -28 19 -88 31 -159 31 -112 0 -171 -28 -108 -52 36 -14 46 -276 11 -298 -47 -29 -19 -70 49 -70 75 0 109 30 73 66 -26 26 -30 114 -4 114 9 0 51 -41 91 -90 136 -167 317 -213 448 -115 81 60 79 98 -2 48 -189 -117 -499 74 -375 232 34 42 40 45 40 14 0 -69 36 -1 43 80 6 64 0 81 -28 87 -25 5 -35 -6 -35 -36z m-83 -88 c8 -41 -27 -71 -82 -72 -26 0 -35 16 -35 61 0 73 103 83 117 11z"/> <path d="M3923 4173 c-71 -75 -51 -134 66 -194 114 -59 131 -87 69 -120 -40 -22 -52 -17 -101 38 -74 83 -104 82 -86 -2 20 -94 21 -95 140 -95 202 0 235 167 48 246 -54 23 -99 54 -99 68 0 41 90 31 130 -14 21 -23 45 -33 54 -24 27 27 -19 124 -59 124 -19 0 -53 5 -75 11 -27 8 -56 -5 -87 -38z"/> <path d="M2187 3654 c-7 -9 -1 -28 11 -40 27 -27 29 -287 2 -304 -44 -27 -16 -50 62 -50 71 0 80 5 67 35 -47 109 -37 145 39 145 78 0 112 -106 42 -133 -52 -20 -11 -47 71 -47 75 0 102 23 59 50 -11 7 -20 74 -20 150 0 76 9 143 20 150 44 27 16 50 -60 50 -76 0 -104 -23 -60 -50 50 -31 21 -110 -41 -110 -69 0 -97 46 -62 102 13 21 23 41 23 46 0 17 -143 23 -153 6z"/> <path d="M2667 3660 c-158 -64 -139 -368 26 -409 73 -18 163 23 198 91 94 182 -51 388 -224 318z m149 -126 c41 -85 -8 -234 -77 -234 -78 0 -128 169 -78 263 32 58 121 42 155 -29z"/> <path d="M3342 3642 c-79 -79 -43 -150 105 -212 89 -37 94 -96 9 -106 -39 -5 -62 7 -87 45 -44 66 -69 65 -69 -4 1 -92 23 -108 141 -101 197 11 223 176 39 252 -104 43 -124 71 -67 92 20 8 51 -3 76 -27 63 -60 98 -53 82 14 -17 67 -5 58 -104 74 -70 12 -91 7 -125 -27z"/> <path d="M2920 3641 c0 -10 9 -24 20 -31 11 -7 20 -69 20 -139 0 -161 40 -219 150 -219 110 0 150 58 150 219 0 70 9 132 20 139 44 27 16 50 -60 50 -44 0 -80 -9 -80 -20 0 -11 8 -20 18 -20 27 0 40 -99 28 -205 -11 -88 -16 -95 -67 -95 -85 0 -119 223 -46 303 32 35 29 37 -60 37 -51 0 -93 -8 -93 -19z"/> <path d="M3614 3648 c-6 -7 2 -34 19 -59 34 -53 19 -267 -21 -294 -42 -28 35 -54 162 -55 120 0 126 3 157 62 43 83 22 147 -28 86 -84 -102 -163 -106 -163 -7 0 67 31 79 50 19 21 -66 50 -24 50 71 0 87 -30 120 -53 59 -18 -47 -47 -35 -47 20 0 63 54 67 128 8 65 -51 80 -41 62 41 l-13 61 -145 0 c-80 0 -151 -6 -158 -12z"/> <path d="M1500 3148 c0 -11 384 -571 805 -1174 99 -141 184 -252 189 -246 6 5 -192 301 -439 657 -247 356 -460 667 -473 691 l-23 44 1442 0 c1040 0 1440 -6 1435 -22 -23 -69 -1009 -1393 -1025 -1377 -12 12 1 40 35 75 60 63 73 104 19 61 -32 -24 -32 -24 -8 8 15 19 35 30 44 25 18 -12 181 208 476 640 112 165 245 356 295 425 l90 125 -1362 0 -1363 0 108 -155 c535 -765 765 -1119 769 -1185 20 -338 169 -549 407 -573 270 -28 497 155 499 400 0 68 55 152 496 760 567 782 584 805 584 821 0 7 -675 12 -1500 12 -825 0 -1500 -5 -1500 -12z m2106 -121 c-50 -20 -113 -155 -118 -249 -7 -157 -62 -288 -172 -409 l-101 -110 -143 12 c-99 9 -166 5 -223 -15 -77 -27 -83 -27 -116 18 -19 25 -51 46 -71 46 -103 0 -216 440 -152 593 23 55 25 79 8 100 -19 23 68 27 545 25 312 0 556 -6 543 -11z m256 -18 c32 -17 68 -25 78 -19 10 6 57 -13 104 -43 48 -30 75 -57 60 -62 -14 -5 -54 13 -90 40 -58 44 -82 49 -249 47 -209 -2 -204 -4 -130 37 72 38 152 39 227 0z m-1426 -20 c53 -37 56 -60 10 -78 -19 -7 -46 1 -65 21 -29 30 -27 31 19 7 46 -23 48 -23 23 8 -16 18 -44 33 -64 33 -20 0 -42 9 -49 20 -20 32 76 23 126 -11z m-156 -6 c0 -11 -25 -25 -56 -32 -31 -7 -100 -35 -153 -62 -123 -62 -151 -62 -151 0 0 49 60 86 100 61 11 -7 20 -1 20 14 0 18 38 28 120 32 69 4 120 -2 120 -13z m1695 -76 c118 -74 49 -103 -107 -45 -111 42 -222 44 -318 7 -39 -15 -39 -15 -3 27 57 65 330 72 428 11z m-1595 -7 c58 -45 31 -51 -86 -19 -41 12 -70 30 -63 40 19 31 96 21 149 -21z m-159 -21 c60 -32 47 -52 -50 -77 -178 -44 -295 -13 -132 35 44 13 85 33 91 44 16 25 43 24 91 -2z m1870 -77 c-24 -40 -51 -23 -51 32 0 50 3 52 32 22 18 -18 27 -42 19 -54z m-388 25 c39 -48 33 -148 -13 -200 -108 -120 -123 -140 -135 -171 -7 -18 -6 -36 3 -40 9 -3 4 -42 -10 -86 -19 -55 -25 -63 -20 -25 4 36 -3 55 -21 55 -15 0 -27 -13 -27 -30 0 -16 -7 -30 -15 -30 -8 0 -16 -22 -18 -49 -4 -71 -81 -218 -170 -324 -29 -35 -57 -75 -62 -90 -5 -15 -17 -20 -26 -11 -10 9 -1 40 18 70 87 134 160 364 115 364 -11 0 -26 -34 -33 -75 -31 -188 -104 -262 -80 -81 13 104 64 188 179 294 49 46 132 230 132 293 0 131 116 216 183 136z m-1315 1 c18 -7 32 -28 32 -48 0 -131 177 -500 239 -500 20 0 51 -22 68 -49 31 -46 35 -47 94 -18 34 17 66 27 71 21 6 -5 -17 -19 -51 -31 -71 -25 -76 -44 -21 -93 60 -54 51 -141 -12 -116 -22 8 -24 17 -6 38 18 23 14 28 -25 28 -31 0 -58 20 -81 60 -19 33 -47 60 -63 60 -16 0 -34 11 -40 25 -7 17 -10 15 -11 -5 -1 -17 21 -64 48 -104 28 -41 50 -82 50 -92 0 -10 59 -74 131 -143 191 -184 108 -191 -112 -10 -60 49 -127 89 -150 89 -63 0 -106 176 -60 246 31 48 31 49 -28 61 -37 7 -61 24 -61 43 0 17 -14 37 -32 44 -18 6 -49 49 -69 94 -21 45 -67 116 -103 159 l-66 76 94 89 c96 90 110 97 164 76z m-304 -113 c-35 -35 -52 -40 -78 -23 -67 42 -52 68 37 68 l86 0 -45 -45z m1923 -100 c-8 -14 -70 -101 -138 -195 -68 -93 -148 -208 -179 -255 -63 -97 -97 -110 -78 -30 21 92 86 188 235 348 130 140 199 196 160 132z m-1714 -319 c85 -97 215 -356 178 -356 -12 0 -451 640 -450 656 1 8 39 -30 85 -84 46 -55 131 -152 187 -216z m824 -98 c66 -23 91 -98 32 -98 -17 0 -53 -15 -80 -32 -42 -28 -49 -28 -49 -3 0 16 -22 53 -50 83 -27 30 -50 58 -50 63 0 18 135 9 197 -13z m332 -157 c-74 -111 -80 -102 -16 24 29 58 57 94 61 81 5 -13 -16 -60 -45 -105z m48 -56 c-188 -223 -248 -285 -274 -285 -23 0 -18 14 19 55 109 122 121 150 25 58 -56 -53 -107 -89 -113 -80 -13 21 161 174 198 174 15 0 51 25 81 56 59 61 112 80 64 22z m-592 -127 c51 -89 182 -85 213 5 26 75 50 65 30 -12 -26 -106 -200 -115 -263 -14 -18 29 -56 74 -84 99 l-51 47 61 -33 c33 -19 75 -60 94 -92z m-138 -95 c121 -97 159 -143 118 -143 -26 1 -325 261 -325 283 0 25 17 13 207 -140z m-102 -73 c83 -151 88 -166 45 -130 -43 36 -37 -8 7 -47 67 -61 95 5 44 105 -56 110 -54 112 52 31 99 -76 140 -80 132 -12 -4 36 6 43 58 43 53 0 58 -4 37 -30 -14 -16 -18 -30 -9 -30 9 0 -6 -24 -33 -53 -26 -29 -34 -47 -18 -40 17 7 46 19 66 26 22 7 32 24 25 42 -8 21 -2 26 20 17 18 -6 26 -3 19 8 -7 12 17 20 58 20 l70 0 -24 -66 c-25 -70 -100 -174 -124 -174 -8 0 -31 -22 -53 -49 -70 -90 -244 -111 -319 -39 -88 83 -162 228 -117 228 64 0 85 62 42 121 -24 31 -43 71 -43 88 0 17 -9 31 -20 31 -28 0 -25 -50 9 -131 16 -38 21 -69 12 -69 -25 0 -61 115 -61 195 0 100 38 75 125 -85z"/> <path d="M3047 981 c-94 -40 -135 -171 -84 -267 69 -129 245 -129 314 0 81 153 -73 333 -230 267z m133 -81 c73 -73 40 -220 -49 -220 -65 0 -111 50 -111 121 0 57 59 139 100 139 11 0 38 -18 60 -40z"/> <path d="M3854 969 c-107 -60 -125 -202 -36 -291 121 -120 302 -48 302 120 0 148 -142 240 -266 171z m149 -62 c73 -65 34 -227 -53 -227 -102 0 -144 187 -53 239 47 28 65 26 106 -12z"/> <path d="M4255 979 c-104 -61 -82 -159 44 -196 59 -18 81 -35 81 -64 0 -63 -114 -54 -144 11 -33 73 -59 61 -52 -25 6 -73 8 -75 93 -81 197 -14 260 153 83 218 -96 35 -119 84 -46 94 28 4 54 -9 70 -35 37 -60 59 -50 52 22 -7 69 -106 99 -181 56z"/> <path d="M1520 960 c0 -11 9 -20 20 -20 11 0 20 -56 20 -129 0 -71 -9 -134 -20 -141 -50 -31 -10 -50 101 -50 201 0 306 191 173 317 -50 46 -294 66 -294 23z m236 -64 c65 -65 16 -216 -70 -216 -43 0 -46 8 -46 120 0 125 47 165 116 96z"/> <path d="M1920 962 c0 -10 14 -23 30 -29 22 -9 30 -43 30 -130 0 -87 -8 -122 -30 -130 -61 -24 -27 -53 60 -53 94 0 111 18 60 60 -20 17 -30 61 -30 133 0 78 8 111 30 120 59 23 28 47 -60 47 -49 0 -90 -8 -90 -18z"/> <path d="M2220 961 c0 -10 8 -24 18 -30 21 -13 -48 -206 -90 -253 -35 -39 -18 -58 54 -58 48 0 55 7 52 55 -4 49 4 56 64 61 66 7 67 5 55 -55 -12 -59 -9 -61 58 -61 69 0 84 15 51 51 -33 36 -85 228 -72 269 12 37 4 40 -89 40 -55 0 -101 -8 -101 -19z m107 -158 c-44 -10 -51 5 -35 70 l15 57 25 -60 c21 -51 20 -61 -5 -67z"/> <path d="M2540 960 c0 -11 9 -20 20 -20 11 0 20 -56 20 -129 0 -71 -9 -134 -20 -141 -44 -27 -16 -50 60 -50 76 0 104 23 60 50 -11 7 -20 70 -20 141 0 73 9 129 20 129 11 0 20 9 20 20 0 11 -36 20 -80 20 -44 0 -80 -9 -80 -20z"/> <path d="M2757 953 c17 -20 11 -38 -27 -73 -28 -26 -50 -58 -50 -70 0 -41 114 -184 156 -195 36 -9 106 15 83 29 -5 3 -27 16 -49 28 -22 12 -57 52 -79 88 l-38 66 73 67 c92 84 92 87 -8 87 -67 0 -79 -5 -61 -27z"/> <path d="M3367 943 c44 -49 47 -259 3 -276 -49 -19 -12 -47 61 -47 67 0 90 24 49 50 -11 7 -20 59 -19 116 l0 104 81 -86 c76 -80 80 -89 50 -122 -48 -52 -40 -62 48 -62 84 0 100 19 50 60 -20 17 -30 61 -30 133 0 78 8 111 30 120 58 22 29 47 -53 47 -79 0 -82 -2 -50 -37 58 -64 43 -120 -17 -63 -27 26 -50 59 -50 73 0 19 -29 27 -93 27 -89 0 -92 -2 -60 -37z"/> </g> </svg> 