<?xml version="1.0" standalone="no"?>
<!DOCTYPE svg PUBLIC "-//W3C//DTD SVG 20010904//EN"
 "http://www.w3.org/TR/2001/REC-SVG-20010904/DTD/svg10.dtd">
<svg version="1.0" xmlns="http://www.w3.org/2000/svg"
 width="300.000000pt" height="300.000000pt" viewBox="0 0 300.000000 300.000000"
 preserveAspectRatio="xMidYMid meet">
<metadata>
Created by potrace 1.10, written by Peter Selinger 2001-2011
</metadata>
<g transform="translate(0.000000,300.000000) scale(0.100000,-0.100000)"
fill="#c5269b" stroke="none">
<path d="M1500 2655 c0 -45 0 -45 -35 -45 -24 0 -35 -5 -35 -15 0 -10 11 -15
35 -15 l35 0 0 -130 c0 -109 2 -130 15 -130 13 0 15 21 15 130 l0 130 41 0
c52 0 48 24 -4 28 -37 3 -37 4 -37 48 0 32 -4 44 -15 44 -11 0 -15 -12 -15
-45z"/>
<path d="M1248 2335 c-8 -40 7 -50 30 -18 l21 28 1 -77 c0 -42 -4 -80 -10 -83
-23 -14 -7 -25 35 -25 44 0 54 7 36 26 -16 15 -20 144 -5 144 7 0 16 -9 19
-20 9 -27 25 -16 25 17 0 21 2 24 15 13 20 -17 20 -118 0 -146 -18 -27 -11
-34 37 -34 36 0 49 12 28 25 -5 3 -10 21 -10 38 0 31 1 32 45 32 44 0 45 -1
45 -31 0 -20 -6 -34 -16 -38 -40 -15 6 -26 112 -26 l114 0 14 33 c18 43 5 55
-27 23 -15 -14 -38 -26 -52 -26 -21 0 -25 5 -25 30 0 33 14 39 28 14 5 -9 14
-14 21 -10 13 8 15 65 2 85 -7 11 -11 9 -20 -8 -16 -28 -31 -27 -31 4 0 21 5
25 28 25 16 0 37 -9 47 -20 24 -26 36 -16 23 20 l-10 30 -114 0 c-63 0 -114
-2 -114 -5 0 -3 5 -14 12 -24 20 -32 3 -53 -39 -49 -33 3 -38 7 -41 31 -2 15
1 27 7 27 6 0 11 4 11 9 0 6 -51 10 -119 10 -118 1 -119 0 -123 -24z m390 -73
c3 -67 1 -72 -18 -72 -18 0 -20 6 -20 76 0 66 2 75 18 72 14 -3 18 -16 20 -76z"/>
<path d="M936 2125 c-23 -21 -27 -32 -24 -67 2 -23 9 -43 15 -46 9 -2 11 5 6
29 -5 25 -3 31 8 27 17 -6 25 -136 9 -152 -19 -19 -10 -31 25 -30 44 1 50 7
34 32 -18 28 -5 52 29 52 16 0 35 7 42 15 19 23 30 18 30 -14 0 -33 48 -81 80
-81 52 0 100 51 100 107 0 29 24 73 40 73 15 0 7 -140 -9 -149 -24 -15 -2 -30
37 -24 46 7 52 12 29 24 -13 8 -17 24 -17 74 0 68 12 88 32 55 16 -25 34 -26
48 0 20 37 30 20 30 -49 0 -50 -4 -72 -15 -81 -20 -16 -3 -30 37 -30 31 0 45
17 29 33 -13 13 -15 147 -2 147 5 0 13 -9 16 -21 8 -23 31 -20 29 5 -1 9 2 16
7 16 14 0 11 -134 -3 -148 -17 -17 -11 -19 69 -24 l72 -5 10 30 c18 51 14 64
-11 40 -31 -28 -66 -45 -78 -38 -13 8 -13 65 0 65 5 0 15 -10 21 -22 12 -23
13 -23 21 7 14 49 -9 103 -26 60 -9 -24 -26 -17 -26 10 0 20 5 25 23 25 13 0
32 -9 42 -20 23 -25 35 -25 35 -1 0 52 3 51 -227 51 -207 -1 -215 -2 -220 -21
-6 -20 -6 -20 -27 -1 -35 32 -63 36 -102 13 -43 -26 -41 -26 -48 4 -14 55
-122 74 -170 30z m112 -21 c15 -10 22 -25 22 -48 0 -38 -15 -56 -48 -56 -21 0
-24 4 -20 28 3 15 8 35 12 44 6 14 1 17 -31 20 -37 4 -37 4 -13 15 35 16 52
16 78 -3z m196 -82 c18 -64 -33 -124 -75 -86 -27 24 -26 97 2 125 18 18 23 19
42 6 12 -8 26 -28 31 -45z m-114 1 c0 -21 -2 -22 -20 -11 -11 7 -20 23 -20 35
0 21 2 22 20 11 11 -7 20 -23 20 -35z"/>
<path d="M1902 2086 c6 -31 4 -32 -22 -6 -16 16 -33 20 -79 20 -58 0 -88 -14
-57 -26 12 -5 16 -22 16 -74 0 -38 -4 -72 -10 -75 -5 -3 -10 -13 -10 -22 0
-12 7 -14 36 -10 44 7 51 14 36 29 -7 7 -12 26 -12 43 l0 30 53 -57 c56 -61
100 -88 144 -88 33 0 104 38 111 59 3 10 -7 7 -32 -9 -53 -32 -115 -24 -162
21 -41 40 -50 65 -31 87 8 9 17 24 20 32 4 10 6 7 6 -7 1 -37 21 -26 23 12 0
19 1 41 2 47 1 7 -7 14 -18 16 -15 3 -18 -1 -14 -22z m-44 -40 c4 -20 -13 -36
-40 -36 -13 0 -18 8 -18 31 0 27 3 30 27 27 18 -2 29 -10 31 -22z"/>
<path d="M1966 2089 c-43 -33 -33 -68 28 -99 58 -30 66 -44 35 -61 -20 -10
-26 -8 -51 20 -36 41 -52 40 -43 -1 10 -47 11 -48 65 -48 38 0 54 5 70 22 37
40 21 78 -45 103 -45 18 -58 38 -30 49 8 3 27 -6 43 -19 35 -29 44 -24 30 16
-6 18 -17 29 -28 29 -10 0 -25 2 -32 5 -8 3 -27 -4 -42 -16z"/>
<path d="M1328 1824 c-36 -19 -48 -43 -48 -98 0 -61 31 -97 84 -99 31 -1 44 5
67 31 43 47 41 102 -5 148 -37 37 -57 41 -98 18z m58 -22 c56 -37 29 -169 -31
-146 -39 15 -49 100 -15 134 22 22 29 24 46 12z"/>
<path d="M1670 1820 c-39 -39 -25 -70 43 -100 54 -24 61 -53 15 -58 -20 -2
-31 4 -44 22 -21 33 -34 33 -34 2 0 -48 9 -56 61 -56 55 0 89 24 89 63 0 33
-11 44 -63 66 -49 21 -58 35 -30 45 9 4 25 -2 38 -14 31 -29 47 -26 39 8 -8
33 -1 28 -51 36 -35 5 -46 3 -63 -14z"/>
<path d="M1090 1821 c0 -6 5 -13 10 -16 6 -3 10 -37 10 -75 0 -38 -4 -72 -10
-75 -22 -13 -8 -25 30 -25 38 0 52 12 30 25 -5 3 -10 19 -10 36 0 27 3 29 35
29 32 0 35 -2 35 -30 0 -18 -6 -33 -15 -36 -28 -11 -4 -24 42 -24 44 0 45 1
30 18 -19 21 -24 146 -7 157 23 14 7 25 -37 25 -44 0 -45 -1 -30 -18 10 -10
17 -28 17 -40 0 -18 -6 -22 -35 -22 -29 0 -35 4 -35 22 0 12 7 30 17 40 15 17
14 18 -30 18 -26 0 -47 -4 -47 -9z m147 -93 c-3 -8 -6 -5 -6 6 -1 11 2 17 5
13 3 -3 4 -12 1 -19z"/>
<path d="M1460 1821 c0 -6 5 -13 10 -16 6 -3 10 -35 10 -69 0 -81 19 -108 75
-108 56 0 75 27 75 108 0 34 5 66 10 69 22 13 8 25 -30 25 -40 0 -53 -13 -25
-24 27 -10 16 -140 -12 -150 -8 -3 -23 -1 -34 4 -16 9 -19 22 -19 72 0 43 5
67 17 80 15 17 14 18 -30 18 -26 0 -47 -4 -47 -9z"/>
<path d="M1800 1822 c0 -4 6 -14 12 -20 16 -16 12 -144 -5 -154 -22 -14 4 -22
75 -22 l71 -1 14 34 c17 40 3 64 -18 33 -18 -24 -56 -45 -69 -37 -13 8 -13 65
-1 65 5 0 13 -9 16 -20 10 -33 25 -12 25 36 0 43 -15 59 -26 29 -9 -24 -24
-17 -24 10 0 32 27 33 64 4 33 -26 38 -22 30 19 l-6 32 -79 0 c-44 0 -79 -4
-79 -8z"/>
<path d="M750 1575 c0 -4 75 -113 324 -473 92 -134 170 -241 173 -239 2 3
-102 159 -232 347 -130 188 -235 343 -233 346 3 2 329 3 725 2 l721 -3 -257
-352 c-141 -194 -259 -353 -263 -353 -17 0 -7 28 17 50 27 25 35 51 10 30 -13
-11 -14 -10 -9 4 3 9 13 15 22 14 15 -3 61 58 310 417 l118 170 -338 3 c-186
1 -490 1 -677 0 l-339 -3 146 -210 c284 -412 292 -424 291 -458 -3 -89 56
-220 116 -257 43 -27 126 -36 183 -21 83 23 151 110 152 196 1 36 26 75 270
410 148 204 270 374 270 378 0 4 -337 7 -750 7 -412 -1 -750 -3 -750 -5z m245
-64 c6 -1 -4 -8 -21 -17 -20 -10 -35 -27 -42 -47 -8 -26 -10 -28 -11 -9 -1 12
-4 22 -9 22 -11 0 -33 40 -27 50 4 7 54 7 110 1z m804 -3 c-30 -25 -52 -72
-51 -108 1 -19 -7 -64 -18 -99 -16 -53 -30 -75 -76 -122 -54 -54 -57 -56 -92
-48 -52 12 -101 10 -144 -5 -31 -11 -38 -11 -42 1 -3 8 -21 20 -40 28 -30 13
-37 24 -65 100 -35 97 -40 154 -18 206 12 27 13 39 5 47 -9 9 58 12 272 12
228 0 281 -2 269 -12z m134 -3 c19 -8 37 -12 40 -9 7 8 87 -44 87 -57 0 -11
-11 -6 -55 26 -26 19 -42 22 -122 21 -90 -1 -92 0 -70 16 27 22 73 23 120 3z
m184 -2 c5 -15 -17 -47 -34 -50 -7 -2 -17 6 -23 17 -6 11 -17 20 -24 20 -8 0
-18 6 -24 13 -8 9 2 12 46 12 35 0 57 -5 59 -12z m-899 -9 c26 -18 28 -30 5
-38 -10 -4 -23 0 -32 10 -15 15 -14 15 9 4 22 -11 23 -11 10 3 -18 18 -70 31
-70 18 0 -5 -13 -12 -28 -16 -15 -3 -50 -17 -77 -30 -61 -31 -75 -31 -75 -1 0
26 23 40 51 31 14 -5 17 -2 13 9 -4 11 -2 15 7 11 8 -2 37 -1 64 4 76 13 99
12 123 -5z m-23 -49 c17 -14 23 -23 15 -20 -8 2 -34 9 -58 15 -23 6 -40 15
-37 20 11 18 50 10 80 -15z m796 6 c39 -32 13 -43 -51 -21 -62 22 -106 25
-146 10 -33 -13 -40 -8 -19 14 26 25 184 23 216 -3z m-880 -11 c29 -16 23 -28
-18 -39 -46 -13 -113 -14 -113 -3 0 5 18 14 40 21 21 6 42 16 45 21 8 13 21
13 46 0z m926 -47 c-16 -16 -17 -15 -17 17 0 32 1 33 17 17 16 -16 16 -18 0
-34z m-187 22 c0 -8 4 -15 9 -15 16 0 6 -64 -14 -86 -42 -48 -60 -71 -74 -95
-13 -23 -13 -23 4 -9 16 14 17 13 12 -5 -3 -11 -9 -32 -13 -47 -3 -16 -10 -28
-15 -28 -5 0 -4 11 1 25 6 16 6 26 -1 31 -6 3 -13 -3 -16 -15 -3 -12 -8 -21
-12 -21 -3 0 -7 -11 -7 -24 -2 -23 -11 -43 -49 -113 -22 -39 -85 -110 -85 -96
0 7 13 33 29 58 16 25 32 62 35 83 4 20 9 45 12 55 3 9 1 17 -5 17 -5 0 -13
-17 -16 -37 -10 -58 -14 -69 -34 -92 -19 -22 -41 -30 -23 -8 6 7 14 37 18 67
6 47 14 61 65 116 54 58 89 130 89 181 0 8 7 27 15 43 12 23 22 30 45 30 20 0
30 -5 30 -15z m65 3 c5 4 6 0 3 -8 -4 -12 3 -15 33 -15 22 -1 46 -8 56 -17 15
-16 14 -19 -18 -45 -18 -15 -37 -27 -41 -25 -4 1 -7 -4 -5 -10 1 -7 -4 -12
-11 -10 -8 1 -11 -1 -8 -6 3 -5 -22 -35 -54 -67 -68 -67 -85 -103 -89 -192 -1
-26 -2 -26 -15 -7 -9 12 -11 21 -4 25 6 4 7 19 4 37 -5 20 -2 34 8 45 9 8 21
37 28 64 6 26 22 59 35 74 13 14 23 29 23 33 0 5 7 14 16 20 20 15 21 80 3
103 -13 15 -12 15 7 5 12 -6 25 -8 29 -4z m-703 -33 c47 -162 80 -232 112
-241 25 -6 106 -104 106 -128 0 -18 -10 -25 -26 -19 -11 4 -12 9 -3 19 9 11 7
14 -12 14 -16 0 -30 10 -41 30 -9 17 -24 30 -33 30 -8 0 -15 6 -16 13 0 9 -2
9 -5 0 -3 -6 6 -30 20 -52 14 -22 26 -44 26 -49 0 -5 29 -37 65 -71 36 -35 65
-65 65 -67 0 -19 -64 16 -154 86 -26 20 -43 27 -50 21 -8 -7 -15 6 -25 45 -11
49 -10 58 5 81 13 20 13 25 2 21 -17 -7 -42 10 -51 35 -3 9 -13 17 -21 17 -9
0 -19 12 -22 28 -4 15 -24 50 -45 78 -22 28 -39 54 -39 59 0 4 19 26 42 47 52
48 87 49 100 3z m-167 -25 c-10 -11 -23 -20 -30 -20 -7 0 -20 9 -30 20 -18 20
-17 20 30 20 47 0 48 0 30 -20z m923 -102 c-25 -35 -71 -100 -102 -145 -32
-46 -60 -83 -63 -83 -9 0 9 66 29 100 22 38 158 188 171 189 5 1 -11 -27 -35
-61z m-822 -109 c43 -50 102 -164 90 -177 -5 -4 -226 316 -225 326 0 4 19 -15
42 -42 23 -27 65 -75 93 -107z m324 -29 c-11 -7 -6 -10 21 -10 60 0 99 -18 99
-46 0 -16 -4 -22 -14 -18 -8 3 -26 -2 -40 -11 -21 -14 -26 -15 -26 -3 0 8 -13
29 -30 48 -27 30 -32 32 -55 22 -32 -15 -38 -15 -30 -2 3 5 20 14 38 19 43 12
55 13 37 1z m290 -4 c0 -3 -4 -8 -10 -11 -5 -3 -10 -1 -10 4 0 6 5 11 10 11 6
0 10 -2 10 -4z m-325 -36 c-3 -5 1 -10 9 -10 8 0 25 -14 37 -31 20 -28 26 -30
59 -25 35 5 37 5 32 -19 -2 -14 -8 -25 -12 -25 -4 0 -13 -13 -20 -30 -9 -23
-16 -28 -29 -21 -9 5 -20 7 -26 5 -16 -5 -43 60 -38 90 4 17 -1 33 -11 45 -9
10 -13 21 -9 24 10 10 15 8 8 -3z m289 -60 c-37 -55 -43 -43 -8 16 15 26 30
42 32 36 2 -6 -9 -29 -24 -52z m16 -37 c-39 -51 -132 -145 -137 -139 -7 6 137
166 150 166 4 0 -1 -12 -13 -27z m-304 -38 c34 -38 48 -45 78 -45 24 0 38 5
41 15 13 40 18 49 21 39 3 -6 0 -22 -5 -37 -18 -47 -109 -44 -132 5 -5 13 -24
33 -42 46 -17 12 -25 22 -18 22 8 0 33 -20 57 -45z m-109 -18 c21 -18 60 -50
87 -72 27 -21 44 -41 38 -43 -13 -4 -119 77 -161 122 -35 37 -8 32 36 -7z
m308 -17 c-49 -49 -52 -52 -54 -37 -2 8 86 87 97 87 3 0 -16 -22 -43 -50z
m-304 -61 c16 -32 33 -60 39 -64 5 -3 10 -11 10 -16 0 -6 -4 -8 -9 -4 -17 10
-71 95 -71 111 0 7 -4 14 -10 14 -14 0 -12 -25 4 -65 8 -19 11 -35 6 -35 -13
0 -30 58 -30 103 0 35 2 38 16 26 9 -7 29 -39 45 -70z m75 -24 c50 -39 70 -40
67 -6 -2 17 3 21 27 21 17 0 30 5 30 10 0 6 9 10 21 10 12 0 19 -5 16 -12 -2
-7 -11 -13 -20 -13 -9 0 -22 -6 -29 -13 -6 -6 -8 -12 -3 -12 5 0 -4 -14 -21
-31 l-29 -31 37 19 c29 14 36 22 31 38 -5 18 -4 19 12 5 11 -9 16 -10 11 -2
-5 9 2 12 27 12 l35 0 -12 -33 c-11 -33 -49 -87 -60 -87 -4 0 -17 -11 -29 -25
-12 -13 -44 -30 -70 -37 -40 -10 -52 -10 -74 2 -32 18 -107 147 -80 137 11 -4
20 -1 24 9 4 12 11 8 32 -17 24 -28 28 -30 40 -15 11 13 9 22 -12 61 -14 25
-24 45 -21 45 2 0 25 -16 50 -35z m282 -7 c5 -54 -15 -114 -49 -153 -33 -37
-76 -53 -144 -53 l-40 0 34 15 c37 16 131 106 131 125 0 6 9 21 20 33 18 19
19 24 6 34 -12 10 -13 16 -3 27 21 24 42 11 45 -28z"/>
<path d="M1523 485 c-61 -26 -72 -97 -24 -146 40 -39 82 -39 122 0 48 48 31
128 -32 150 -18 6 -32 11 -33 11 -1 -1 -15 -7 -33 -15z m71 -37 c33 -47 13
-108 -34 -108 -19 0 -33 7 -40 19 -36 69 32 150 74 89z"/>
<path d="M2133 489 c-31 -11 -46 -44 -33 -69 6 -11 15 -20 21 -20 5 0 25 -7
44 -14 36 -15 39 -38 8 -50 -20 -8 -63 19 -63 39 0 8 -4 15 -10 15 -11 0 -13
-24 -4 -56 4 -16 14 -21 47 -22 57 -3 89 20 85 61 -3 27 -9 34 -48 48 -48 18
-60 42 -23 47 14 2 27 -4 35 -17 19 -30 30 -26 26 10 -3 27 -7 32 -33 34 -17
1 -40 -1 -52 -6z"/>
<path d="M760 480 c0 -5 5 -10 10 -10 6 0 10 -28 10 -64 0 -36 -4 -68 -10 -71
-5 -3 -10 -11 -10 -17 0 -7 24 -9 66 -6 55 3 70 8 85 27 26 31 25 91 -2 125
-18 23 -27 26 -85 26 -36 0 -64 -4 -64 -10z m125 -31 c13 -13 11 -75 -4 -93
-7 -9 -24 -16 -37 -16 -23 0 -24 3 -24 66 l0 66 28 -7 c15 -3 31 -11 37 -16z"/>
<path d="M973 472 c23 -25 24 -130 2 -138 -30 -12 -14 -24 30 -24 44 0 60 12
30 24 -22 8 -21 113 2 138 15 17 14 18 -32 18 -46 0 -47 -1 -32 -18z"/>
<path d="M1110 481 c0 -5 4 -11 10 -13 12 -4 -33 -131 -49 -136 -20 -7 -1 -22
29 -22 25 0 28 3 26 32 -1 29 2 32 29 32 27 0 30 -3 29 -32 -2 -30 0 -32 32
-32 34 0 42 8 25 26 -14 16 -50 134 -40 134 5 0 9 5 9 10 0 6 -22 10 -50 10
-27 0 -50 -4 -50 -9z m53 -79 c-21 -5 -25 2 -17 34 l7 29 13 -30 c10 -25 10
-31 -3 -33z"/>
<path d="M1270 480 c0 -5 5 -10 10 -10 6 0 10 -28 10 -64 0 -36 -4 -68 -10
-71 -22 -13 -8 -25 30 -25 38 0 52 12 30 25 -5 3 -10 35 -10 71 0 36 4 64 10
64 6 0 10 5 10 10 0 6 -18 10 -40 10 -22 0 -40 -4 -40 -10z"/>
<path d="M1378 478 c9 -9 6 -18 -14 -39 -30 -32 -27 -53 16 -98 27 -30 80 -43
80 -21 0 6 -7 10 -15 10 -8 0 -28 19 -45 41 l-29 41 39 32 c21 17 39 34 39 39
1 4 -18 7 -41 7 -33 0 -39 -3 -30 -12z"/>
<path d="M1683 476 c13 -10 17 -28 17 -74 0 -33 -4 -64 -10 -67 -21 -13 -9
-25 25 -25 34 0 46 12 25 25 -5 3 -10 31 -10 60 l0 55 41 -45 c38 -42 47 -75
19 -75 -5 0 -10 -4 -10 -10 0 -5 18 -10 40 -10 40 0 54 15 25 26 -22 9 -21
111 2 136 15 17 14 18 -27 18 -41 0 -42 -1 -27 -18 10 -10 17 -27 17 -37 0
-16 -4 -15 -30 10 -16 15 -27 32 -24 37 3 4 -16 8 -43 8 -42 -1 -46 -2 -30
-14z"/>
<path d="M1922 483 c-23 -9 -44 -64 -38 -99 16 -81 132 -100 165 -27 31 68 -7
134 -76 132 -21 0 -44 -3 -51 -6z m80 -30 c21 -19 25 -82 6 -101 -30 -30 -88
1 -88 47 0 33 26 71 47 71 9 0 25 -7 35 -17z"/>
</g>
</svg>
